<?xml version="1.0" encoding="utf-8"?>
<!-- Generator: Adobe Illustrator 16.0.1, SVG Export Plug-In . SVG Version: 6.00 Build 0)  -->
<!DOCTYPE svg PUBLIC "-//W3C//DTD SVG 1.1//EN" "http://www.w3.org/Graphics/SVG/1.1/DTD/svg11.dtd">
<svg version="1.1" id="Слой_1" xmlns="http://www.w3.org/2000/svg" xmlns:xlink="http://www.w3.org/1999/xlink" x="0px" y="0px"
	 width="450px" height="250px" viewBox="0 0 450 250" enable-background="new 0 0 450 250" xml:space="preserve">
<path fill="#373737" d="M8.738,50.005L207.8,242.35c11.369,10.996,29.5,10.678,40.479-0.683
	c11.003-11.358,10.705-29.485-0.664-40.481L48.556,8.842C37.186-2.153,19.055-1.835,8.052,9.523
	C-2.951,20.882-2.631,39.01,8.738,50.005z"/>
<path fill="#373737" d="M213.039,201.126L403.533,8.546c10.891-11.008,28.247-10.69,38.765,0.682
	c10.518,11.395,10.232,29.522-0.657,40.531L251.146,242.338c-10.891,11.01-28.249,10.691-38.765-0.682
	C201.86,230.284,202.146,212.135,213.039,201.126z"/>
</svg>
