<?xml version="1.0" encoding="iso-8859-1"?>
<!-- Generator: Adobe Illustrator 17.1.0, SVG Export Plug-In . SVG Version: 6.00 Build 0)  -->
<!DOCTYPE svg PUBLIC "-//W3C//DTD SVG 1.1//EN" "http://www.w3.org/Graphics/SVG/1.1/DTD/svg11.dtd">
<svg version="1.1" id="Layer_1" xmlns="http://www.w3.org/2000/svg" xmlns:xlink="http://www.w3.org/1999/xlink" x="0px" y="0px"
	 width="19px" height="20px" viewBox="0 0 19 20" style="enable-background:new 0 0 19 20;" xml:space="preserve">
<path fill="#FFFFFF" style="fill-rule:evenodd;clip-rule:evenodd;" d="M0.389,19.641c-0.5-0.48-0.514-1.272-0.03-1.769l8.467-8.693
	c0.484-0.496,1.281-0.51,1.782-0.03c0.5,0.48,0.514,1.272,0.03,1.769l-8.467,8.693C1.687,20.107,0.889,20.12,0.389,19.641z"/>
<path fill="#FFFFFF" style="fill-rule:evenodd;clip-rule:evenodd;" d="M10.609,10.834c0.5-0.48,0.514-1.271,0.03-1.767L2.171,0.384
	c-0.484-0.496-1.282-0.509-1.782-0.03c-0.5,0.48-0.514,1.271-0.03,1.767l8.467,8.683C9.31,11.301,10.108,11.314,10.609,10.834z"/>
<path fill="#FFFFFF" style="fill-rule:evenodd;clip-rule:evenodd;" d="M18.609,0.357c0.5,0.48,0.514,1.272,0.03,1.769l-8.467,8.693
	c-0.484,0.496-1.281,0.51-1.782,0.03c-0.5-0.48-0.514-1.272-0.03-1.769l8.467-8.693C17.311-0.109,18.109-0.123,18.609,0.357z"/>
<path fill="#FFFFFF" style="fill-rule:evenodd;clip-rule:evenodd;" d="M8.389,9.163c-0.5,0.48-0.514,1.271-0.03,1.768l8.467,8.683
	c0.484,0.496,1.282,0.509,1.782,0.03c0.5-0.48,0.514-1.271,0.03-1.767l-8.467-8.683C9.688,8.698,8.89,8.684,8.389,9.163z"/>
</svg>
