<?xml version="1.0" encoding="iso-8859-1"?>
<!-- Generator: Adobe Illustrator 17.1.0, SVG Export Plug-In . SVG Version: 6.00 Build 0)  -->
<!DOCTYPE svg PUBLIC "-//W3C//DTD SVG 1.1//EN" "http://www.w3.org/Graphics/SVG/1.1/DTD/svg11.dtd">
<svg version="1.1" id="Layer_1" xmlns="http://www.w3.org/2000/svg" xmlns:xlink="http://www.w3.org/1999/xlink" x="0px" y="0px"
	 width="11px" height="20px" viewBox="0 0 11 20" style="enable-background:new 0 0 11 20;" xml:space="preserve">
<path fill="#FFFFFF" style="fill-rule:evenodd;clip-rule:evenodd;" d="M0.39,19.641c-0.5-0.48-0.514-1.272-0.03-1.769l8.467-8.693
	c0.484-0.497,1.281-0.51,1.782-0.03c0.5,0.48,0.514,1.272,0.03,1.769l-8.467,8.693C1.688,20.108,0.89,20.121,0.39,19.641z"/>
<path fill="#FFFFFF" style="fill-rule:evenodd;clip-rule:evenodd;" d="M10.609,10.834c0.5-0.48,0.514-1.271,0.03-1.767L2.172,0.383
	C1.688-0.113,0.89-0.126,0.39,0.354c-0.5,0.479-0.514,1.27-0.03,1.766l8.467,8.684C9.311,11.3,10.109,11.314,10.609,10.834z"/>
</svg>
