<?xml version="1.0" encoding="iso-8859-1"?>
<!-- Generator: Adobe Illustrator 17.1.0, SVG Export Plug-In . SVG Version: 6.00 Build 0)  -->
<!DOCTYPE svg PUBLIC "-//W3C//DTD SVG 1.1//EN" "http://www.w3.org/Graphics/SVG/1.1/DTD/svg11.dtd">
<svg version="1.1" id="Layer_1" xmlns="http://www.w3.org/2000/svg" xmlns:xlink="http://www.w3.org/1999/xlink" x="0px" y="0px"
	 width="32px" height="26px" viewBox="0 0 32 26" style="enable-background:new 0 0 32 26;" xml:space="preserve">
<path style="fill-rule:evenodd;clip-rule:evenodd;" d="M28,26H4c-2.209,0-4-1.791-4-4V4c0-2.209,1.791-4,4-4h24c2.209,0,4,1.791,4,4
	v18C32,24.209,30.209,26,28,26z M5,2l11,9.562L27,2H5z M30,4c0-0.576-0.247-1.09-0.636-1.455L16,14L2.635,2.545
	C2.246,2.91,2,3.425,2,4v18c0,1.105,0.896,2,2,2h24c1.105,0,2-0.895,2-2V4z"/>
</svg>
