<?xml version="1.0" encoding="utf-8"?>
<svg version="1.1" id="icon_1_" xmlns="http://www.w3.org/2000/svg" xmlns:xlink="http://www.w3.org/1999/xlink" x="0px" y="0px"
	 viewBox="0 0 14 16" width="14px" height="16px" enable-background="new 0 0 14 16" xml:space="preserve">
<g id="icon">
	<g>
		<path fill="#FFFFFF" d="M11.4,10.6c-0.7,0-1.3,0.3-1.8,0.7L5.2,8.9c0,0,0,0,0,0L10.1,5c0.4,0.2,0.8,0.4,1.3,0.4c1.4,0,2.6-1.2,2.6-2.7
			C14,1.2,12.8,0,11.4,0C9.9,0,8.8,1.2,8.8,2.7c0,0.3,0.1,0.7,0.2,1L4.6,7.1C4.1,6.6,3.4,6.2,2.6,6.2C1.2,6.2,0,7.4,0,8.9
			c0,1.5,1.2,2.7,2.6,2.7c0.8,0,1.6-0.4,2-1l4.1,2.3c0,0.1,0,0.3,0,0.4c0,1.5,1.2,2.7,2.6,2.7c1.4,0,2.6-1.2,2.6-2.7
			C14,11.8,12.8,10.6,11.4,10.6z"/>
	</g>
</g>
</svg>
