<?xml version="1.0" encoding="iso-8859-1"?>
<!-- Generator: Adobe Illustrator 17.1.0, SVG Export Plug-In . SVG Version: 6.00 Build 0)  -->
<!DOCTYPE svg PUBLIC "-//W3C//DTD SVG 1.1//EN" "http://www.w3.org/Graphics/SVG/1.1/DTD/svg11.dtd">
<svg version="1.1" id="Layer_1" xmlns="http://www.w3.org/2000/svg" xmlns:xlink="http://www.w3.org/1999/xlink" x="0px" y="0px"
	 width="44px" height="29px" viewBox="0 0 44 29" style="enable-background:new 0 0 44 29;" xml:space="preserve">
<path fill="#FFFFFF" style="fill-rule:evenodd;clip-rule:evenodd;" d="M22,28.999c-11.041,0-22-12.081-22-14.5c0-2.423,11.007-14.5,22-14.5
	c10.958,0,22,12.082,22,14.5C44,16.903,33.011,28.999,22,28.999z M22,2.416c-9.618,0-19.25,10.063-19.25,12.083
	c0,2.016,9.588,12.084,19.25,12.084c9.635,0,19.25-10.08,19.25-12.084C41.249,12.484,31.588,2.416,22,2.416z M22,20.541
	c-3.797,0-6.875-2.705-6.875-6.042c0-3.336,3.078-6.042,6.875-6.042c3.797,0,6.875,2.705,6.875,6.042
	C28.875,17.836,25.797,20.541,22,20.541z M22,10.874c-2.278,0-4.125,1.623-4.125,3.625c0,2.002,1.847,3.625,4.125,3.625
	c2.278,0,4.125-1.623,4.125-3.625C26.124,12.497,24.277,10.874,22,10.874z"/>
</svg>
