<?xml version="1.0" encoding="iso-8859-1"?>
<!-- Generator: Adobe Illustrator 17.1.0, SVG Export Plug-In . SVG Version: 6.00 Build 0)  -->
<!DOCTYPE svg PUBLIC "-//W3C//DTD SVG 1.1//EN" "http://www.w3.org/Graphics/SVG/1.1/DTD/svg11.dtd">
<svg version="1.1" id="Layer_1" xmlns="http://www.w3.org/2000/svg" xmlns:xlink="http://www.w3.org/1999/xlink" x="0px" y="0px"
	 viewBox="0 0 22 16" style="enable-background:new 0 0 22 16;" xml:space="preserve">
<path style="fill-rule:evenodd;clip-rule:evenodd;" d="M1,0h20c0.552,0,1,0.447,1,1c0,0.552-0.448,1-1,1H1C0.448,2,0,1.552,0,1
	C0,0.447,0.448,0,1,0z"/>
<path style="fill-rule:evenodd;clip-rule:evenodd;" d="M1,7h20c0.552,0,1,0.448,1,1c0,0.552-0.448,1-1,1H1C0.448,9,0,8.552,0,8
	C0,7.448,0.448,7,1,7z"/>
<path style="fill-rule:evenodd;clip-rule:evenodd;" d="M1,14h20c0.552,0,1,0.448,1,1c0,0.552-0.448,1-1,1H1c-0.552,0-1-0.448-1-1
	C0,14.448,0.448,14,1,14z"/>
</svg>
