<?xml version="1.0" encoding="iso-8859-1"?>
<!-- Generator: Adobe Illustrator 17.1.0, SVG Export Plug-In . SVG Version: 6.00 Build 0)  -->
<!DOCTYPE svg PUBLIC "-//W3C//DTD SVG 1.1//EN" "http://www.w3.org/Graphics/SVG/1.1/DTD/svg11.dtd">
<svg version="1.1" id="Layer_1" xmlns="http://www.w3.org/2000/svg" xmlns:xlink="http://www.w3.org/1999/xlink" width="30px"  height="21px" x="0px" y="0px"
	 viewBox="0 0 30 21" style="enable-background:new 0 0 30 21;" xml:space="preserve">
<path fill="#fffcfc" d="M14.209-0.008H7.921L1.839,8.916c-1.237,1.821-1.855,3.693-1.855,5.617c0,1.926,0.635,3.483,1.907,4.673
	c1.271,1.191,2.835,1.785,4.69,1.785c1.856,0,3.402-0.611,4.639-1.837c1.237-1.224,1.856-2.904,1.856-5.041
	c0-2.134-0.963-3.832-2.886-5.092L14.209-0.008z M29.981-0.008h-6.288l-6.082,8.924c-1.237,1.821-1.856,3.693-1.856,5.617
	c0,1.926,0.635,3.483,1.907,4.673c1.271,1.191,2.835,1.785,4.69,1.785c1.856,0,3.402-0.611,4.639-1.837
	c1.237-1.224,1.856-2.904,1.856-5.041c0-2.134-0.963-3.832-2.886-5.092L29.981-0.008z"/>
</svg>
